# xmcd
#
# Track frame offsets:
#	150
#	13527
#	26480
#	41997
#	54160
#	68537
#	84392
#	118442
#	134907
#	145840
#
# Disc length: 2104 seconds
#
# Revision: 5
# Processed by: cddbd v1.5.2PL0 Copyright (c) Steve Scherf et al.
# Submitted via: audiograbber 1.83.01
#
DISCID=8b08360a
DTITLE=Various Artist - Ladies Sing The Blues
DYEAR=2000
DGENRE=Blues
TTITLE0=Bessie Smith - Dirty No-Gooder's Blues (1929)
TTITLE1=Ruby Smith w Jimmy Johnson - Backwater Blues (1939)
TTITLE2=Ida Cox and Her All Star Band - Four Day Creep (1939)
TTITLE3=Big Maybelle Orchestra - Gabbin' Blues (1952)
TTITLE4=Maybelle Smith - Maybelle's Blues (1953)
TTITLE5=Helen Merrill - Careless Love
TTITLE6=Sarah Vaughn - The Blues
TTITLE7=Ruth Brown - Hurry On Down
TTITLE8=Aretha Franklin - Muddy Waters (1965)
TTITLE9=Aretha Franklin - Evil Gal Blues (1965)
EXTD=Compilation
EXTT0=Bessie Smith
EXTT1=Ruby Smith With Jimmy Johnson
EXTT2=Ida Cox and Her All Star Band
EXTT3=Big Maybelle Orchestra
EXTT4=Maybelle Smith
EXTT5=Helen Merrill
EXTT6=Sarah Vaughn
EXTT7=Ruth Brown
EXTT8=Aretha Franklin
EXTT9=Aretha Franklin
PLAYORDER=
